<?xml version="1.0" ?><svg viewBox="0 0 100 100" xmlns="http://www.w3.org/2000/svg" xmlns:xlink="http://www.w3.org/1999/xlink"><style>:root>svg{display:none}:root>svg:target{display:block}</style><svg viewBox="0 0 100 100" id="paper_pen_write_note_journalism_icon_228108" xmlns="http://www.w3.org/2000/svg"><path d="M35 16c-2.2 0-4 1.8-4 4s1.8 4 4 4 4-1.8 4-4-1.8-4-4-4zm0 6c-1.1 0-2-.9-2-2s.9-2 2-2 2 .9 2 2-.9 2-2 2zM16 16c-2.2 0-4 1.8-4 4s1.8 4 4 4 4-1.8 4-4-1.8-4-4-4zm0 6c-1.1 0-2-.9-2-2s.9-2 2-2 2 .9 2 2-.9 2-2 2zM54 16c-2.2 0-4 1.8-4 4s1.8 4 4 4 4-1.8 4-4-1.8-4-4-4zm0 6c-1.1 0-2-.9-2-2s.9-2 2-2 2 .9 2 2-.9 2-2 2z"/><path d="M96 28.9c0-2.1-.8-4.1-2.3-5.6-1.5-1.5-3.5-2.3-5.6-2.3-2.1 0-4.1.8-5.6 2.3-.4-.4-1-.4-1.4 0l-15 15V13c0-.6-.4-1-1-1H5c-.6 0-1 .4-1 1v74c0 .6.4 1 1 1h60c.1 0 .3 0 .4-.1 0 0 .1 0 .1-.1.1 0 .1-.1.2-.1l.1-.1c0-.1.1-.1.1-.2v-.1-.1-.1V64c0-.1 0-.2-.1-.3L90 39.5l3.5-3.5c.2-.2.3-.4.3-.7 0-.3-.1-.5-.3-.7 1.7-1.6 2.5-3.5 2.5-5.7zM88.1 23c1.6 0 3.1.6 4.2 1.7s1.7 2.6 1.7 4.2-.6 3.1-1.7 4.2l-8.4-8.4c1.1-1.1 2.6-1.7 4.2-1.7zM60 66.8l-2.1-2.1 28-28 2.1 2.1-28 28zM48 66l3 3-3.7.7.7-3.7zm5.3 2.5l-4.8-4.8.9-4.7 8.6 8.6-4.7.9zm3.2-5.2l-2.8-2.8 28-28 2.8 2.8-28 28zm-4.2-4.2L50.2 57l28-28 2.1 2.1-28 28zM6 14h58v12H6V14zm0 72V60.4c11.1 16 30.4 22.8 43.9 25.6H6zm1.2-27.4c8.3 2 16.4 1.9 24-.3.9 4.2 5.2 18.7 24.8 26.8-12.9-2-36.6-8-48.8-26.5zM64 85.7c-28.7-8-31-28.6-31-28.8 0-.3-.2-.6-.4-.7-.3-.2-.6-.2-.9-.2-8.1 2.6-16.7 2.6-25.7.2V28h58v12c0 .1 0 .2.1.3l-16 16v.1c0 .1-.1.1-.1.2s-.1.1-.1.2v.1l-2.8 14c-.1.3 0 .7.3.9.2.2.4.3.7.3h.2l14-2.8h.1c.1 0 .1 0 .2-.1.1 0 .1-.1.2-.1h.1l3.3-3.3v19.9zm25.5-48.4l-9.8-9.8 2.1-2.1 9.8 9.8-2.1 2.1z"/><path d="M19 34h32c.6 0 1-.4 1-1s-.4-1-1-1H19c-.6 0-1 .4-1 1s.4 1 1 1zM10 40h50c.6 0 1-.4 1-1s-.4-1-1-1H10c-.6 0-1 .4-1 1s.4 1 1 1zM10 45h47c.6 0 1-.4 1-1s-.4-1-1-1H10c-.6 0-1 .4-1 1s.4 1 1 1zM10 50h42c.6 0 1-.4 1-1s-.4-1-1-1H10c-.6 0-1 .4-1 1s.4 1 1 1zM47 54c0-.6-.4-1-1-1H10c-.6 0-1 .4-1 1s.4 1 1 1h36c.6 0 1-.4 1-1z"/></svg><svg viewBox="0 0 100 100" id="profession_avatar_journalist_reporter_journalism_icon_228114" xmlns="http://www.w3.org/2000/svg"><path d="M94.2 85.2c-.8-4.2-4-7.6-8.2-8.7l-19.9-5c.1-.3.1-.5-.1-.8l-3-5.2c-.1-.2-.4-.4-.6-.5-.3-.1-.5 0-.8.1L59 66.6v-6.3c1.8-1.2 3.4-2.6 4.7-4.4H69c2.8 0 5-2.2 5-5v-4c1.7 0 3-1.3 3-3V34c0-1.3-.8-2.4-2-2.8V25c0-11.6-9.4-21-21-21h-8c-11.6 0-21 9.4-21 21v6.2c-1.2.4-2 1.5-2 2.8v10c0 1.7 1.3 3 3 3h7.1c.3 5.6 3.4 10.6 7.9 13.4v6.2l-2.5-1.4c-.2-.2-.5-.2-.8-.2-.3.1-.5.2-.6.5l-3 5.2c-.1.2-.1.5-.1.8l-20 5c-4.2 1-7.4 4.5-8.2 8.7L4 94.8c-.1.3 0 .6.2.8s.5.4.8.4h90c.3 0 .6-.1.8-.4s.3-.5.2-.8l-1.8-9.6zM61.8 67.4l2 3.5-10.4 6-2-3.5 10.4-6zM72 51c0 1.7-1.3 3-3 3h-4c1.1-2.1 1.8-4.5 2-7h5v4zM34.1 31c-.1 0-.1 0 0 0H32v-6c0-7.7 6.3-14 14-14h8c7.7 0 14 6.3 14 14v6h-2c-6.4 0-7.7-5-7.8-5.2-.1-.4-.4-.7-.8-.8-.4-.1-.8.1-1 .5-4 6.9-22.1 5.5-22.3 5.5zM75 44c0 .6-.4 1-1 1h-7V33h7c.6 0 1 .4 1 1v10zM46 6h8c10.5 0 19 8.5 19 19v6h-3v-6c0-8.8-7.2-16-16-16h-8c-8.8 0-16 7.2-16 16v6h-3v-6c0-10.5 8.5-19 19-19zM25 44V34c0-.6.4-1 1-1h7v12h-7c-.6 0-1-.4-1-1zm10 2V33.1c3.9.2 16.9.4 22-5.1 1 1.9 3.3 4.6 8 5v13c0 2.9-.9 5.7-2.3 8H54v-1c0-.6-.4-1-1-1h-6c-.6 0-1 .4-1 1v4c0 .6.4 1 1 1h6c.6 0 1-.4 1-1v-1h7.1c-2.7 3.1-6.7 5-11.1 5-8.3 0-15-6.7-15-15zm17 10h-4v-2h4v2zm-9 5.5c2.1 1 4.5 1.5 7 1.5s4.9-.6 7-1.5v6.3l-6.9 4-7.1-4.1v-6.2zm-4.6 5.9l10.4 6-2 3.5-10.4-6 2-3.5zM7.8 85.5c.7-3.5 3.3-6.3 6.7-7.1L36.1 73l10.5 6.1c.2.1.3.1.5.1h.3c.3-.1.5-.2.6-.5l1-1.7v17H6.2l1.6-8.5zM51 94V76.7l1.1 2c.1.2.4.4.6.5h.3c.2 0 .3 0 .5-.1L64 73l21.5 5.4c3.4.9 6.1 3.7 6.7 7.1l1.6 8.5H51z"/></svg></svg>